<svg width="142" height="142" viewBox="0 0 142 142" fill="none" xmlns="http://www.w3.org/2000/svg">
<rect opacity="0.01" width="141.156" height="141.156" fill="white"/>
<path d="M93.6714 26.0245C116.234 26.0248 134.524 44.3156 134.524 66.8781C134.524 89.4403 116.234 107.73 93.6714 107.731C71.109 107.731 52.8181 89.4404 52.8179 66.8781C52.8179 44.3155 71.1088 26.0245 93.6714 26.0245ZM83.8237 40.6896L72.0913 75.8859H95.5562L83.8237 99.3507L119.02 64.1544H95.5562L107.289 40.6896H83.8237Z" fill="#9333EA"/>
<path d="M19.8173 48.4237H48.8349C46.9743 52.0921 45.6529 56.0791 44.9706 60.2811H20.3369V76.576H45.5995C46.6293 80.8051 48.3162 84.7759 50.5478 88.3749H19.8173V119.914H8.8222V17.6444H19.8173V48.4237ZM68.2128 103.998C71.6473 105.581 75.3382 106.701 79.207 107.278V119.914H68.2128V103.998ZM79.207 26.4755C75.3382 27.0531 71.6473 28.174 68.2128 29.7567V17.6444H79.2079L79.207 26.4755Z" fill="#9333EA"/>
</svg>
